<?xml version="1.0" encoding="utf-8"?>
<!-- Generator: Adobe Illustrator 24.2.0, SVG Export Plug-In . SVG Version: 6.00 Build 0)  -->
<svg version="1.1" id="Layer_1" xmlns="http://www.w3.org/2000/svg" xmlns:xlink="http://www.w3.org/1999/xlink" x="0px" y="0px"
	 viewBox="0 0 24 24" style="enable-background:new 0 0 24 24;" xml:space="preserve">
<style type="text/css">
	.st0{fill:none;}
	.st1{fill:#FFFFFF;}
</style>
<rect class="st0" width="24" height="24"/>
<path class="st1" d="M18.8,10.9l0.5-2.2l-3.1,0l0.7-3h-2.3l-0.7,3l-2.2,0l0.7-3.1h-2.3L9.4,8.7l-3.2,0l-0.5,2.2l3.1,0l-0.5,2.2
	l-3.1,0l-0.5,2.2l3.1,0l-0.7,3h2.3l0.7-3l2.2,0l-0.7,3.1h2.3l0.7-3.1l3.2,0l0.5-2.2l-3.1,0l0.5-2.2L18.8,10.9z M12.9,13.1l-2.2,0
	l0.5-2.2l2.2,0L12.9,13.1z"/>
</svg>
