<?xml version="1.0" encoding="utf-8"?>
<!-- Generator: Adobe Illustrator 24.2.1, SVG Export Plug-In . SVG Version: 6.00 Build 0)  -->
<svg version="1.1" id="Layer_1" xmlns="http://www.w3.org/2000/svg" xmlns:xlink="http://www.w3.org/1999/xlink" x="0px" y="0px"
	 viewBox="0 0 24 24" style="enable-background:new 0 0 24 24;" xml:space="preserve">
<style type="text/css">
	.st0{fill:none;}
	.st1{fill:#FFFFFF;}
</style>
<path class="st0" d="M0,0h24v24H0V0z"/>
<path class="st1" d="M17.6,17.7c1.2-1.2,1.2-3.2,0-4.4l-2.8-2.8l1.3-1.3L19,12c2,2,2,5.1,0,7.1s-5.1,2-7.1,0l-2.8-2.8l1.3-1.3
	l2.8,2.8C14.5,18.9,16.4,18.9,17.6,17.7z M14,15.5L8.3,9.8l1.4-1.4l5.7,5.7L14,15.5z M11.9,4.9l2.8,2.9l-1.3,1.3l-2.8-2.8
	c-1.2-1.2-3.2-1.2-4.4,0s-1.2,3.2,0,4.4L9,13.5l-1.3,1.3L4.9,12c-2-2-2-5.1,0-7.1S9.9,3,11.9,4.9z"/>
</svg>
