<?xml version="1.0" encoding="utf-8"?>
<!-- Generator: Adobe Illustrator 24.2.0, SVG Export Plug-In . SVG Version: 6.00 Build 0)  -->
<svg version="1.1" id="Layer_1" xmlns="http://www.w3.org/2000/svg" xmlns:xlink="http://www.w3.org/1999/xlink" x="0px" y="0px"
	 viewBox="0 0 18 18" style="enable-background:new 0 0 18 18;" xml:space="preserve">
<style type="text/css">
	.st0{fill:none;}
	.st1{fill:#496DC2;}
</style>
<path class="st0" d="M0,0h18v18H0V0z"/>
<path class="st1" d="M6.8,9c1.4,0,2.6-1.2,2.6-2.6S8.2,3.8,6.8,3.8S4.1,4.9,4.1,6.4S5.3,9,6.8,9z M6.8,5.2c0.6,0,1.1,0.5,1.1,1.1
	S7.4,7.5,6.8,7.5S5.6,7,5.6,6.4S6.1,5.2,6.8,5.2z M6.8,12.8H3.6c0.7-0.4,2-0.8,3.2-0.8c0.1,0,0.2,0,0.3,0c0.3-0.5,0.7-1,1.2-1.4
	c-0.5-0.1-1.1-0.1-1.5-0.1c-1.8,0-5.2,0.9-5.2,2.6v1.1h5.2v-1.1C6.8,13,6.8,12.9,6.8,12.8z M12.4,10.9c-1.4,0-4.1,0.8-4.1,2.2v1.1
	h8.2v-1.1C16.5,11.6,13.8,10.9,12.4,10.9z M13.3,9.5c0.6-0.3,1-0.9,1-1.6c0-1-0.8-1.9-1.9-1.9s-1.9,0.8-1.9,1.9c0,0.7,0.4,1.3,1,1.6
	c0.3,0.1,0.6,0.2,0.9,0.2S13,9.7,13.3,9.5z"/>
</svg>
