<?xml version="1.0" encoding="utf-8"?>
<!-- Generator: Adobe Illustrator 24.2.1, SVG Export Plug-In . SVG Version: 6.00 Build 0)  -->
<svg version="1.1" id="Layer_1" xmlns="http://www.w3.org/2000/svg" xmlns:xlink="http://www.w3.org/1999/xlink" x="0px" y="0px"
	 viewBox="0 0 24 24" style="enable-background:new 0 0 24 24;" xml:space="preserve">
<style type="text/css">
	.st0{fill:none;}
	.st1{fill:#FFFFFF;}
</style>
<path class="st0" d="M0,0h24v24H0V0z"/>
<path class="st1" d="M20,8h-2.8c-0.5-0.8-1.1-1.4-1.8-2L17,4.4L15.6,3l-2.2,2.2C13,5.1,12.5,5,12,5s-1,0.1-1.4,0.2L8.4,3L7,4.4
	L8.6,6C7.9,6.6,7.3,7.2,6.8,8H4v2h2.1C6,10.3,6,10.7,6,11v1H4v2h2v1c0,0.3,0,0.7,0.1,1H4v2h2.8c1,1.8,3,3,5.2,3s4.1-1.2,5.2-3H20v-2
	h-2.1c0-0.3,0.1-0.7,0.1-1v-1h2v-2h-2v-1c0-0.3,0-0.7-0.1-1H20V8z M16,12v3c0,0.2,0,0.5-0.1,0.7l-0.1,0.7L15.5,17
	c-0.7,1.2-2,2-3.5,2s-2.7-0.8-3.5-2l-0.4-0.6l-0.1-0.6C8,15.5,8,15.2,8,15v-4c0-0.2,0-0.5,0.1-0.7l0.1-0.6L8.5,9
	c0.3-0.5,0.7-1,1.2-1.3l0.6-0.4l0.7-0.2C11.4,7,11.7,7,12,7c0.3,0,0.6,0,0.9,0.1l0.7,0.2l0.6,0.4C14.7,8,15.1,8.5,15.4,9l0.4,0.6
	l0.1,0.6c0,0.2,0.1,0.5,0.1,0.7C16,11,16,12,16,12z M10,14h4v2h-4V14z M10,10h4v2h-4V10z"/>
</svg>
