<svg id="Layer_1" data-name="Layer 1" xmlns="http://www.w3.org/2000/svg" xmlns:xlink="http://www.w3.org/1999/xlink" width="6.09in" height="2in" viewBox="0 0 438.36 144"><defs><style>.cls-1{fill:none;}.cls-2{clip-path:url(#clip-path);}.cls-3{fill:#496dc2;}</style><clipPath id="clip-path" transform="translate(-140.82 -288)"><rect class="cls-1" x="140.82" y="288" width="438.36" height="144"/></clipPath></defs><g id="Logo_Blue" data-name="Logo Blue"><g class="cls-2"><g class="cls-2"><path class="cls-3" d="M284.82,396a36,36,0,0,1-36,36h-108V288h108a36,36,0,0,1,0,72,36,36,0,0,1,36,36" transform="translate(-140.82 -288)"/><path class="cls-3" d="M438.82,360a72,72,0,0,1-72,72h-72V288h72a72,72,0,0,1,72,72" transform="translate(-140.82 -288)"/><path class="cls-3" d="M516.82,360l62.36,36a72,72,0,1,1,0-72Z" transform="translate(-140.82 -288)"/></g></g></g></svg>